<svg width="1832" height="118" viewBox="0 0 1832 118" fill="none" xmlns="http://www.w3.org/2000/svg">
<mask id="mask0_488_11" style="mask-type:alpha" maskUnits="userSpaceOnUse" x="1" y="1" width="468" height="116">
<path d="M420 51L468.5 116.5H1V1H404.5L420 16.5V51Z" fill="#D9D9D9"/>
</mask>
<g mask="url(#mask0_488_11)">
<path d="M345.262 42.1308L337.696 55.2345L322.565 55.2345L315 42.1308L322.565 29.0271L337.696 29.0271L345.262 42.1308Z" fill="#03FAFA"/>
<path d="M369.597 56.206L362.032 69.3097L346.901 69.3097L339.335 56.206L346.901 43.1023L362.032 43.1023L369.597 56.206Z" fill="#03FAFA"/>
<path d="M369.597 28.1308L362.032 41.2345L346.901 41.2345L339.335 28.1308L346.901 15.0271L362.032 15.0271L369.597 28.1308Z" fill="#03FAFA" fill-opacity="0.5"/>
<path d="M345.262 70.1308L337.696 83.2345L322.565 83.2345L315 70.1308L322.565 57.0271L337.696 57.0271L345.262 70.1308Z" fill="#03FAFA" fill-opacity="0.5"/>
<path d="M394.262 70.1308L386.696 83.2345L371.565 83.2345L364 70.1308L371.565 57.0271L386.696 57.0271L394.262 70.1308Z" fill="#03FAFA" fill-opacity="0.5"/>
<path d="M339 84.1309L346.565 71.0272L361.696 71.0272L369.262 84.1309L361.696 97.2346L346.565 97.2346L339 84.1309Z" fill="#03FAFA"/>
<path d="M394.229 42.1308L386.663 55.2345L371.532 55.2345L363.967 42.1308L371.532 29.0271L386.663 29.0271L394.229 42.1308Z" fill="#03FAFA"/>
<path d="M394.262 14.1308L386.696 27.2345L371.565 27.2345L364 14.1308L371.565 1.02715L386.696 1.02715L394.262 14.1308Z" fill="#03FAFA"/>
<path d="M418.597 28.206L411.032 41.3097L395.901 41.3097L388.335 28.206L395.901 15.1023L411.032 15.1023L418.597 28.206Z" fill="#03FAFA"/>
<path d="M418.597 0.130827L411.032 13.2345L395.901 13.2345L388.335 0.130826L395.901 -12.9729L411.032 -12.9729L418.597 0.130827Z" fill="#03FAFA" fill-opacity="0.5"/>
<path d="M394.262 42.1308L386.696 55.2345L371.565 55.2345L364 42.1308L371.565 29.0271L386.696 29.0271L394.262 42.1308Z" fill="#03FAFA" fill-opacity="0.5"/>
<path d="M443.262 42.1308L435.696 55.2345L420.565 55.2345L413 42.1308L420.565 29.0271L435.696 29.0271L443.262 42.1308Z" fill="#03FAFA" fill-opacity="0.5"/>
<path d="M388 56.1309L395.565 43.0272L410.696 43.0272L418.262 56.1309L410.696 69.2346L395.565 69.2346L388 56.1309Z" fill="#03FAFA"/>
<path d="M443.229 14.1308L435.663 27.2345L420.532 27.2345L412.967 14.1308L420.532 1.02715L435.663 1.02715L443.229 14.1308Z" fill="#03FAFA"/>
<path d="M394.262 70.1308L386.696 83.2345L371.565 83.2345L364 70.1308L371.565 57.0271L386.696 57.0271L394.262 70.1308Z" fill="#03FAFA"/>
<path d="M418.597 84.206L411.032 97.3097L395.901 97.3097L388.335 84.206L395.901 71.1023L411.032 71.1023L418.597 84.206Z" fill="#03FAFA"/>
<path d="M418.597 56.1308L411.032 69.2345L395.901 69.2345L388.335 56.1308L395.901 43.0271L411.032 43.0271L418.597 56.1308Z" fill="#03FAFA" fill-opacity="0.5"/>
<path d="M394.262 98.1308L386.696 111.235L371.565 111.235L364 98.1308L371.565 85.0271L386.696 85.0271L394.262 98.1308Z" fill="#03FAFA" fill-opacity="0.5"/>
<path d="M443.262 98.1308L435.696 111.235L420.565 111.235L413 98.1308L420.565 85.0271L435.696 85.0271L443.262 98.1308Z" fill="#03FAFA" fill-opacity="0.5"/>
<path d="M388 112.131L395.565 99.0272L410.696 99.0272L418.262 112.131L410.696 125.235L395.565 125.235L388 112.131Z" fill="#03FAFA"/>
<path d="M443.229 70.1308L435.663 83.2345L420.532 83.2345L412.967 70.1308L420.532 57.0271L435.663 57.0271L443.229 70.1308Z" fill="#03FAFA"/>
<path d="M321.262 84.1308L313.696 97.2345L298.565 97.2345L291 84.1308L298.565 71.0271L313.696 71.0271L321.262 84.1308Z" fill="#03FAFA"/>
<path d="M345.597 98.206L338.032 111.31L322.901 111.31L315.335 98.206L322.901 85.1023L338.032 85.1023L345.597 98.206Z" fill="#03FAFA"/>
<path d="M345.597 70.1308L338.032 83.2345L322.901 83.2345L315.335 70.1308L322.901 57.0271L338.032 57.0271L345.597 70.1308Z" fill="#03FAFA" fill-opacity="0.5"/>
<path d="M321.262 112.131L313.696 125.235L298.565 125.235L291 112.131L298.565 99.0271L313.696 99.0271L321.262 112.131Z" fill="#03FAFA" fill-opacity="0.5"/>
<path d="M370.262 112.131L362.696 125.235L347.565 125.235L340 112.131L347.565 99.0271L362.696 99.0271L370.262 112.131Z" fill="#03FAFA" fill-opacity="0.5"/>
<path d="M315 126.131L322.565 113.027L337.696 113.027L345.262 126.131L337.696 139.235L322.565 139.235L315 126.131Z" fill="#03FAFA"/>
<path d="M370.229 84.1308L362.663 97.2345L347.532 97.2345L339.967 84.1308L347.532 71.0271L362.663 71.0271L370.229 84.1308Z" fill="#03FAFA"/>
<path d="M443.262 98.1308L435.696 111.235L420.565 111.235L413 98.1308L420.565 85.0271L435.696 85.0271L443.262 98.1308Z" fill="#03FAFA"/>
<path d="M467.597 112.206L460.032 125.31L444.901 125.31L437.335 112.206L444.901 99.1023L460.032 99.1023L467.597 112.206Z" fill="#03FAFA"/>
<path d="M467.597 84.1308L460.032 97.2345L444.901 97.2345L437.335 84.1308L444.901 71.0271L460.032 71.0271L467.597 84.1308Z" fill="#03FAFA" fill-opacity="0.5"/>
<path d="M443.262 126.131L435.696 139.235L420.565 139.235L413 126.131L420.565 113.027L435.696 113.027L443.262 126.131Z" fill="#03FAFA" fill-opacity="0.5"/>
<path d="M492.262 126.131L484.696 139.235L469.565 139.235L462 126.131L469.565 113.027L484.696 113.027L492.262 126.131Z" fill="#03FAFA" fill-opacity="0.5"/>
<path d="M492.229 98.1308L484.663 111.235L469.532 111.235L461.967 98.1308L469.532 85.0271L484.663 85.0271L492.229 98.1308Z" fill="#03FAFA"/>
</g>
<path d="M420 51L468.5 116.5H34L1 85.5V1H404.5L420 16.5V51Z" stroke="#03FAFA" stroke-width="2"/>
<path d="M1 117V93L26 117H1Z" fill="#03FAFA" stroke="#03FAFA" stroke-width="2"/>
<mask id="mask1_488_11" style="mask-type:alpha" maskUnits="userSpaceOnUse" x="1363" y="1" width="468" height="116">
<path d="M1411.5 51L1363 116.5H1830.5V1H1427L1411.5 16.5V51Z" fill="#D9D9D9"/>
</mask>
<g mask="url(#mask1_488_11)">
<path d="M1486.24 42.1308L1493.8 55.2345L1508.93 55.2345L1516.5 42.1308L1508.93 29.0271L1493.8 29.0271L1486.24 42.1308Z" fill="#03FAFA"/>
<path d="M1461.9 56.206L1469.47 69.3097L1484.6 69.3097L1492.16 56.206L1484.6 43.1023L1469.47 43.1023L1461.9 56.206Z" fill="#03FAFA"/>
<path d="M1461.9 28.1308L1469.47 41.2345L1484.6 41.2345L1492.16 28.1308L1484.6 15.0271L1469.47 15.0271L1461.9 28.1308Z" fill="#03FAFA" fill-opacity="0.5"/>
<path d="M1486.24 70.1308L1493.8 83.2345L1508.93 83.2345L1516.5 70.1308L1508.93 57.0271L1493.8 57.0271L1486.24 70.1308Z" fill="#03FAFA" fill-opacity="0.5"/>
<path d="M1437.24 70.1308L1444.8 83.2345L1459.93 83.2345L1467.5 70.1308L1459.93 57.0271L1444.8 57.0271L1437.24 70.1308Z" fill="#03FAFA" fill-opacity="0.5"/>
<path d="M1492.5 84.1309L1484.93 71.0272L1469.8 71.0272L1462.24 84.1309L1469.8 97.2346L1484.93 97.2346L1492.5 84.1309Z" fill="#03FAFA"/>
<path d="M1437.27 42.1308L1444.84 55.2345L1459.97 55.2345L1467.53 42.1308L1459.97 29.0271L1444.84 29.0271L1437.27 42.1308Z" fill="#03FAFA"/>
<path d="M1437.24 14.1308L1444.8 27.2345L1459.93 27.2345L1467.5 14.1308L1459.93 1.02715L1444.8 1.02715L1437.24 14.1308Z" fill="#03FAFA"/>
<path d="M1412.9 28.206L1420.47 41.3097L1435.6 41.3097L1443.16 28.206L1435.6 15.1023L1420.47 15.1023L1412.9 28.206Z" fill="#03FAFA"/>
<path d="M1412.9 0.130827L1420.47 13.2345L1435.6 13.2345L1443.16 0.130826L1435.6 -12.9729L1420.47 -12.9729L1412.9 0.130827Z" fill="#03FAFA" fill-opacity="0.5"/>
<path d="M1437.24 42.1308L1444.8 55.2345L1459.93 55.2345L1467.5 42.1308L1459.93 29.0271L1444.8 29.0271L1437.24 42.1308Z" fill="#03FAFA" fill-opacity="0.5"/>
<path d="M1388.24 42.1308L1395.8 55.2345L1410.93 55.2345L1418.5 42.1308L1410.93 29.0271L1395.8 29.0271L1388.24 42.1308Z" fill="#03FAFA" fill-opacity="0.5"/>
<path d="M1443.5 56.1309L1435.93 43.0272L1420.8 43.0272L1413.24 56.1309L1420.8 69.2346L1435.93 69.2346L1443.5 56.1309Z" fill="#03FAFA"/>
<path d="M1388.27 14.1308L1395.84 27.2345L1410.97 27.2345L1418.53 14.1308L1410.97 1.02715L1395.84 1.02715L1388.27 14.1308Z" fill="#03FAFA"/>
<path d="M1437.24 70.1308L1444.8 83.2345L1459.93 83.2345L1467.5 70.1308L1459.93 57.0271L1444.8 57.0271L1437.24 70.1308Z" fill="#03FAFA"/>
<path d="M1412.9 84.206L1420.47 97.3097L1435.6 97.3097L1443.16 84.206L1435.6 71.1023L1420.47 71.1023L1412.9 84.206Z" fill="#03FAFA"/>
<path d="M1412.9 56.1308L1420.47 69.2345L1435.6 69.2345L1443.16 56.1308L1435.6 43.0271L1420.47 43.0271L1412.9 56.1308Z" fill="#03FAFA" fill-opacity="0.5"/>
<path d="M1437.24 98.1308L1444.8 111.235L1459.93 111.235L1467.5 98.1308L1459.93 85.0271L1444.8 85.0271L1437.24 98.1308Z" fill="#03FAFA" fill-opacity="0.5"/>
<path d="M1388.24 98.1308L1395.8 111.235L1410.93 111.235L1418.5 98.1308L1410.93 85.0271L1395.8 85.0271L1388.24 98.1308Z" fill="#03FAFA" fill-opacity="0.5"/>
<path d="M1443.5 112.131L1435.93 99.0272L1420.8 99.0272L1413.24 112.131L1420.8 125.235L1435.93 125.235L1443.5 112.131Z" fill="#03FAFA"/>
<path d="M1388.27 70.1308L1395.84 83.2345L1410.97 83.2345L1418.53 70.1308L1410.97 57.0271L1395.84 57.0271L1388.27 70.1308Z" fill="#03FAFA"/>
<path d="M1510.24 84.1308L1517.8 97.2345L1532.93 97.2345L1540.5 84.1308L1532.93 71.0271L1517.8 71.0271L1510.24 84.1308Z" fill="#03FAFA"/>
<path d="M1485.9 98.206L1493.47 111.31L1508.6 111.31L1516.16 98.206L1508.6 85.1023L1493.47 85.1023L1485.9 98.206Z" fill="#03FAFA"/>
<path d="M1485.9 70.1308L1493.47 83.2345L1508.6 83.2345L1516.16 70.1308L1508.6 57.0271L1493.47 57.0271L1485.9 70.1308Z" fill="#03FAFA" fill-opacity="0.5"/>
<path d="M1510.24 112.131L1517.8 125.235L1532.93 125.235L1540.5 112.131L1532.93 99.0271L1517.8 99.0271L1510.24 112.131Z" fill="#03FAFA" fill-opacity="0.5"/>
<path d="M1461.24 112.131L1468.8 125.235L1483.93 125.235L1491.5 112.131L1483.93 99.0271L1468.8 99.0271L1461.24 112.131Z" fill="#03FAFA" fill-opacity="0.5"/>
<path d="M1516.5 126.131L1508.93 113.027L1493.8 113.027L1486.24 126.131L1493.8 139.235L1508.93 139.235L1516.5 126.131Z" fill="#03FAFA"/>
<path d="M1461.27 84.1308L1468.84 97.2345L1483.97 97.2345L1491.53 84.1308L1483.97 71.0271L1468.84 71.0271L1461.27 84.1308Z" fill="#03FAFA"/>
<path d="M1388.24 98.1308L1395.8 111.235L1410.93 111.235L1418.5 98.1308L1410.93 85.0271L1395.8 85.0271L1388.24 98.1308Z" fill="#03FAFA"/>
<path d="M1363.9 112.206L1371.47 125.31L1386.6 125.31L1394.16 112.206L1386.6 99.1023L1371.47 99.1023L1363.9 112.206Z" fill="#03FAFA"/>
<path d="M1363.9 84.1308L1371.47 97.2345L1386.6 97.2345L1394.16 84.1308L1386.6 71.0271L1371.47 71.0271L1363.9 84.1308Z" fill="#03FAFA" fill-opacity="0.5"/>
<path d="M1388.24 126.131L1395.8 139.235L1410.93 139.235L1418.5 126.131L1410.93 113.027L1395.8 113.027L1388.24 126.131Z" fill="#03FAFA" fill-opacity="0.5"/>
<path d="M1339.24 126.131L1346.8 139.235L1361.93 139.235L1369.5 126.131L1361.93 113.027L1346.8 113.027L1339.24 126.131Z" fill="#03FAFA" fill-opacity="0.5"/>
<path d="M1339.27 98.1308L1346.84 111.235L1361.97 111.235L1369.53 98.1308L1361.97 85.0271L1346.84 85.0271L1339.27 98.1308Z" fill="#03FAFA"/>
</g>
<path d="M1411.5 51L1363 116.5H1797.5L1830.5 85.5V1H1427L1411.5 16.5V51Z" stroke="#03FAFA" stroke-width="2"/>
<path d="M1830.5 117V93L1805.5 117H1830.5Z" fill="#03FAFA" stroke="#03FAFA" stroke-width="2"/>
<path fill-rule="evenodd" clip-rule="evenodd" d="M455.903 1L440 16.9032V45.9032L494.258 117H585.935L601.839 101.097H913.355H918.968H1230.48L1246.39 117H1338.06L1392.32 45.9032V16.9032L1376.42 1H918.968H913.355H455.903Z" fill="url(#paint0_linear_488_11)"/>
<path d="M440 16.9032L439.293 16.1961L439 16.489V16.9032H440ZM455.903 1V0H455.489L455.196 0.292893L455.903 1ZM440 45.9032H439V46.2412L439.205 46.5099L440 45.9032ZM494.258 117L493.463 117.607L493.763 118H494.258V117ZM585.935 117V118H586.35L586.643 117.707L585.935 117ZM601.839 101.097V100.097H601.424L601.132 100.39L601.839 101.097ZM1230.48 101.097L1231.19 100.39L1230.9 100.097H1230.48V101.097ZM1246.39 117L1245.68 117.707L1245.97 118H1246.39V117ZM1338.06 117V118H1338.56L1338.86 117.607L1338.06 117ZM1392.32 45.9032L1393.12 46.5099L1393.32 46.2412V45.9032H1392.32ZM1392.32 16.9032H1393.32V16.489L1393.03 16.1961L1392.32 16.9032ZM1376.42 1L1377.13 0.292894L1376.83 0H1376.42V1ZM440.707 17.6103L456.61 1.70711L455.196 0.292893L439.293 16.1961L440.707 17.6103ZM441 45.9032V16.9032H439V45.9032H441ZM495.053 116.393L440.795 45.2966L439.205 46.5099L493.463 117.607L495.053 116.393ZM585.935 116H494.258V118H585.935V116ZM601.132 100.39L585.228 116.293L586.643 117.707L602.546 101.804L601.132 100.39ZM913.355 100.097H601.839V102.097H913.355V100.097ZM913.355 102.097H918.968V100.097H913.355V102.097ZM918.968 102.097H1230.48V100.097H918.968V102.097ZM1229.78 101.804L1245.68 117.707L1247.09 116.293L1231.19 100.39L1229.78 101.804ZM1246.39 118H1338.06V116H1246.39V118ZM1338.86 117.607L1393.12 46.5099L1391.53 45.2966L1337.27 116.393L1338.86 117.607ZM1393.32 45.9032V16.9032H1391.32V45.9032H1393.32ZM1393.03 16.1961L1377.13 0.292894L1375.71 1.70711L1391.62 17.6103L1393.03 16.1961ZM1376.42 0H918.968V2H1376.42V0ZM918.968 0H913.355V2H918.968V0ZM455.903 2H913.355V0H455.903V2Z" fill="#03FAFA"/>
<path d="M605.5 107H1225.5L1236 117H596L605.5 107Z" fill="#03FAFA"/>
<path d="M563.273 104H586L577.727 112H555L563.273 104Z" fill="#03FAFA"/>
<path d="M536.273 104H559L550.727 112H528L536.273 104Z" fill="#03FAFA"/>
<path d="M509.273 104H532L523.727 112H501L509.273 104Z" fill="#03FAFA"/>
<path d="M1269.73 104H1247L1255.27 112H1278L1269.73 104Z" fill="#03FAFA"/>
<path d="M1296.73 104H1274L1282.27 112H1305L1296.73 104Z" fill="#03FAFA"/>
<path d="M1323.73 104H1301L1309.27 112H1332L1323.73 104Z" fill="#03FAFA"/>
<defs>
<linearGradient id="paint0_linear_488_11" x1="901.661" y1="398" x2="901.661" y2="1" gradientUnits="userSpaceOnUse">
<stop stop-color="#03FAFA"/>
<stop offset="1" stop-color="#03FAFA" stop-opacity="0"/>
</linearGradient>
</defs>
</svg>
