<svg width="29" height="29" viewBox="0 0 29 29" fill="none" xmlns="http://www.w3.org/2000/svg">
<path d="M27.9897 14.5H9.97196M3.61216 14.5H1.0105M3.61216 14.5C3.61216 13.6569 3.94711 12.8482 4.54332 12.252C5.13953 11.6558 5.94816 11.3209 6.79133 11.3209C7.6345 11.3209 8.44313 11.6558 9.03934 12.252C9.63555 12.8482 9.9705 13.6569 9.9705 14.5C9.9705 15.3432 9.63555 16.1518 9.03934 16.7481C8.44313 17.3443 7.6345 17.6792 6.79133 17.6792C5.94816 17.6792 5.13953 17.3443 4.54332 16.7481C3.94711 16.1518 3.61216 15.3432 3.61216 14.5ZM27.9897 24.1353H19.6072M19.6072 24.1353C19.6072 24.9786 19.2714 25.7882 18.6751 26.3845C18.0787 26.9809 17.2699 27.3159 16.4265 27.3159C15.5834 27.3159 14.7747 26.9795 14.1785 26.3833C13.5823 25.7871 13.2474 24.9784 13.2474 24.1353M19.6072 24.1353C19.6072 23.2919 19.2714 22.4838 18.6751 21.8875C18.0787 21.2911 17.2699 20.9561 16.4265 20.9561C15.5834 20.9561 14.7747 21.291 14.1785 21.8872C13.5823 22.4835 13.2474 23.2921 13.2474 24.1353M13.2474 24.1353H1.0105M27.9897 4.86484H23.4615M17.1018 4.86484H1.0105M17.1018 4.86484C17.1018 4.02167 17.4367 3.21303 18.0329 2.61683C18.6291 2.02062 19.4377 1.68567 20.2809 1.68567C20.6984 1.68567 21.1118 1.7679 21.4975 1.92767C21.8832 2.08744 22.2337 2.32161 22.5289 2.61683C22.8241 2.91204 23.0583 3.26251 23.2181 3.64822C23.3779 4.03394 23.4601 4.44734 23.4601 4.86484C23.4601 5.28233 23.3779 5.69574 23.2181 6.08145C23.0583 6.46716 22.8241 6.81763 22.5289 7.11285C22.2337 7.40806 21.8832 7.64223 21.4975 7.802C21.1118 7.96177 20.6984 8.044 20.2809 8.044C19.4377 8.044 18.6291 7.70906 18.0329 7.11285C17.4367 6.51664 17.1018 5.708 17.1018 4.86484Z" stroke="white" stroke-opacity="0.5" stroke-width="1.5" stroke-miterlimit="10" stroke-linecap="round"/>
</svg>
