<svg width="100" height="100" viewBox="0 0 100 100" fill="none" xmlns="http://www.w3.org/2000/svg">
<path d="M39.7906 85.3488V67.093L32.1232 59.7907L29.2935 72.3872C29.0501 73.3608 28.5182 74.1069 27.6979 74.6253C26.8777 75.1438 25.9795 75.3105 25.0034 75.1255L6.93015 71.4744C5.89566 71.2918 5.10457 70.7746 4.5569 69.9226C4.00922 69.0707 3.82667 68.1275 4.00922 67.093C4.19178 66.0585 4.70903 65.2528 5.56097 64.6759C6.4129 64.099 7.35612 63.9311 8.39062 64.1721L22.265 67.093L28.1069 37.5186L21.5348 40.0744V48.8372C21.5348 49.8717 21.1843 50.7395 20.4833 51.4405C19.7822 52.1415 18.9157 52.4908 17.8836 52.4884C16.8516 52.4859 15.985 52.1354 15.284 51.4368C14.583 50.7382 14.2325 49.8717 14.2325 48.8372V37.7012C14.2325 36.9709 14.4309 36.3174 14.8276 35.7405C15.2244 35.1636 15.7562 34.7218 16.4232 34.4151L28.6546 29.1209C30.7844 28.2081 32.352 27.6154 33.3573 27.3428C34.3625 27.0702 35.2899 26.9327 36.1394 26.9302C37.4173 26.9302 38.604 27.2649 39.6993 27.9343C40.7947 28.6037 41.677 29.4861 42.3464 30.5814L45.9976 36.4233C47.2755 38.4922 48.9343 40.2874 50.9741 41.8087C53.0139 43.33 55.3713 44.3341 58.0464 44.8209C59.0809 45.0035 59.9486 45.4599 60.6497 46.1901C61.3507 46.9203 61.7 47.8027 61.6976 48.8372C61.6951 49.8717 61.3446 50.7236 60.646 51.393C59.9474 52.0624 59.1113 52.3362 58.1377 52.2145C54.8516 51.7277 51.7786 50.7078 48.9185 49.1548C46.0584 47.6019 43.6243 45.6704 41.6162 43.3605L39.4255 54.3139L45.9976 60.5209C46.3627 60.886 46.6365 61.2974 46.8191 61.755C47.0016 62.2126 47.0929 62.6836 47.0929 63.168V85.3488C47.0929 86.3833 46.7424 87.251 46.0414 87.9521C45.3404 88.6531 44.4738 89.0024 43.4418 89C42.4097 88.9975 41.5432 88.647 40.8421 87.9484C40.1411 87.2498 39.7906 86.3833 39.7906 85.3488ZM41.6162 25.1047C39.608 25.1047 37.8896 24.3903 36.4607 22.9614C35.0319 21.5326 34.3163 19.8129 34.3139 17.8023C34.3114 15.7918 35.027 14.0733 36.4607 12.6469C37.8944 11.2205 39.6129 10.5049 41.6162 10.5C43.6194 10.4952 45.3391 11.2108 46.7753 12.6469C48.2114 14.083 48.9258 15.8015 48.9185 17.8023C48.9112 19.8032 48.1968 21.5229 46.7753 22.9614C45.3537 24.4 43.634 25.1144 41.6162 25.1047Z" fill="#E90000"/>
<path d="M58.1482 44.8007C57.6531 45.2955 57.2603 45.8831 56.9922 46.5298C56.7241 47.1764 56.5861 47.8696 56.5859 48.5696C56.5858 49.2697 56.7235 49.9629 56.9913 50.6097C57.259 51.2565 57.6515 51.8442 58.1464 52.3393C58.6412 52.8351 59.2289 53.2284 59.8759 53.4968C60.5229 53.7652 61.2164 53.9034 61.9169 53.9035C62.6173 53.9036 63.3109 53.7656 63.958 53.4973C64.605 53.2291 65.1928 52.8358 65.6877 52.3402C66.1836 51.8453 66.5769 51.2575 66.8454 50.6104C67.1138 49.9633 67.2519 49.2697 67.2519 48.5691C67.2519 47.8686 67.1138 47.1749 66.8454 46.5278C66.5769 45.8807 66.1836 45.2929 65.6877 44.798C65.1927 44.3028 64.6049 43.9099 63.958 43.6419C63.3111 43.374 62.6176 43.2362 61.9174 43.2364C61.2172 43.2367 60.5239 43.375 59.8771 43.6434C59.2303 43.9118 58.6428 44.305 58.1482 44.8007ZM85.1831 74.128C99.1791 60.012 99.1458 37.1429 85.0762 23.0733C85.0561 23.0532 85.0324 23.0409 85.0123 23.0216L85.0175 23.0164L83.5314 21.5285L83.5138 21.546C83.1188 21.2296 82.6222 21.0678 82.1166 21.0905C81.611 21.1132 81.1309 21.319 80.7658 21.6696L80.7632 21.6669L80.7404 21.6897L80.7334 21.6958L80.7281 21.7028L78.2982 24.1319L78.2965 24.1336L78.2947 24.1354L78.1195 24.3107L78.137 24.3282C77.8467 24.6971 77.6897 25.1533 77.6912 25.6227C77.6928 26.0921 77.853 26.5471 78.1457 26.9141L78.1291 26.9307L78.2956 27.0972V27.0981L79.6161 28.4169L79.6398 28.3932C79.6591 28.4134 79.6722 28.437 79.6924 28.4572C90.7922 39.5579 90.8272 57.597 79.7993 68.7432L79.7844 68.7283L78.4665 70.0463L78.4638 70.048L78.4621 70.0506L78.2973 70.2154L78.314 70.232C77.9976 70.6271 77.8358 71.1237 77.8585 71.6293C77.8812 72.1349 78.087 72.615 78.4375 72.98L78.4349 72.9827L78.4621 73.0098L78.4638 73.0125L78.4665 73.0142L79.6897 74.2375L79.6915 74.2401L79.6941 74.2419L80.8999 75.4476L80.9016 75.4503L80.9043 75.452L81.0778 75.6255L81.0953 75.608C81.4644 75.898 81.9206 76.055 82.3901 76.0535C82.8595 76.0521 83.3147 75.8924 83.6821 75.6001L83.6987 75.6168L85.0718 74.2427L85.0762 74.2392L85.092 74.2226L85.1858 74.1288L85.1831 74.128Z" fill="#E90000"/>
<path d="M74.9955 63.9411C83.3736 55.4421 83.3403 41.7143 74.8878 33.2626C74.8676 33.2424 74.8439 33.2302 74.8238 33.21L74.8299 33.2039L73.3429 31.716L73.3253 31.7335C72.9303 31.4171 72.4337 31.2553 71.9281 31.278C71.4225 31.3007 70.9424 31.5065 70.5773 31.8571L70.5747 31.8544L70.5493 31.8798L70.5449 31.8833L70.5414 31.8877L68.1106 34.3185L68.1071 34.3211L68.1045 34.3247L67.931 34.4982L67.9485 34.5157C67.6581 34.8845 67.5009 35.3406 67.5023 35.81C67.5038 36.2794 67.6638 36.7345 67.9564 37.1016L67.9397 37.1182L68.1054 37.2838L68.1071 37.2856L68.1089 37.2873L69.4268 38.6061L69.4504 38.5825C69.4697 38.6026 69.4829 38.6263 69.503 38.6465C74.9868 44.1293 75.0174 53.0236 69.6073 58.5529L69.5959 58.5415L68.2771 59.8603L68.2754 59.8612L68.2745 59.8629L68.1089 60.0285L68.1255 60.0452C67.8094 60.4402 67.6477 60.9366 67.6704 61.442C67.6931 61.9474 67.8988 62.4273 68.2491 62.7923L68.2456 62.7958L70.7132 65.2625L70.8893 65.4387L70.9068 65.4211C71.2759 65.7109 71.7319 65.8678 72.2011 65.8663C72.6704 65.8649 73.1254 65.7053 73.4927 65.4133L73.5102 65.4308L74.8878 64.0533L74.9973 63.9437L74.9955 63.9411Z" fill="#E90000"/>
</svg>
